<?xml version="1.0" encoding="UTF-8" standalone="no"?>
<svg
   xmlns:dc="http://purl.org/dc/elements/1.1/"
   xmlns:cc="http://creativecommons.org/ns#"
   xmlns:rdf="http://www.w3.org/1999/02/22-rdf-syntax-ns#"
   xmlns:svg="http://www.w3.org/2000/svg"
   xmlns="http://www.w3.org/2000/svg"
   xmlns:sodipodi="http://sodipodi.sourceforge.net/DTD/sodipodi-0.dtd"
   xmlns:inkscape="http://www.inkscape.org/namespaces/inkscape"
   id="svg2"
   version="1.1"
   inkscape:version="1.0.1 (3bc2e813f5, 2020-09-07)"
   width="520.64349"
   height="478.08252"
   viewBox="0 0 488.1033 448.20236"
   sodipodi:docname="nat-white.svg"
   inkscape:export-filename="/home/dev/documents/projects/netsoc/website-ng/nat-white.png"
   inkscape:export-xdpi="188.81"
   inkscape:export-ydpi="188.81">
  <metadata
     id="metadata8">
    <rdf:RDF>
      <cc:Work
         rdf:about="">
        <dc:format>image/svg+xml</dc:format>
        <dc:type
           rdf:resource="http://purl.org/dc/dcmitype/StillImage" />
        <dc:title></dc:title>
      </cc:Work>
    </rdf:RDF>
  </metadata>
  <defs
     id="defs6" />
  <sodipodi:namedview
     pagecolor="#ffffff"
     bordercolor="#666666"
     borderopacity="1"
     objecttolerance="10"
     gridtolerance="10"
     guidetolerance="10"
     inkscape:pageopacity="0"
     inkscape:pageshadow="2"
     inkscape:window-width="1916"
     inkscape:window-height="1041"
     id="namedview4"
     showgrid="false"
     fit-margin-top="0"
     fit-margin-left="0"
     fit-margin-right="0"
     fit-margin-bottom="0"
     inkscape:zoom="1"
     inkscape:cx="273.89508"
     inkscape:cy="180.4844"
     inkscape:window-x="1440"
     inkscape:window-y="758"
     inkscape:window-maximized="1"
     inkscape:current-layer="svg2"
     inkscape:document-rotation="0" />
  <path
     sodipodi:nodetypes="ssssczssssssssssssssszszczszsszassssssssssssssssssssssss"
     inkscape:connector-curvature="0"
     id="path4180-6-5-5"
     d="M 165.91312,447.29133 C 134.04064,444.23703 111.43768,439.42956 90.662123,431.2862 34.779693,409.38192 3.9934733,366.15217 0.41908327,304.56796 -2.5125067,254.06042 10.048323,199.49646 34.581533,156.16732 48.635483,131.34586 62.288153,113.63646 83.918383,92.170068 136.84212,42.786299 201.21439,17.807655 241.65952,7.9759719 c 40.44498,-9.831683 80.67041,-8.980486 101.65211,-5.85496 37.24973,5.548942 63.8088,17.1905611 93.21995,40.8612321 36.54082,29.408724 54.52046,69.596346 51.1772,114.390506 -3.11243,41.70288 -22.06856,77.53431 -62.09373,117.37192 -29.42109,29.28314 -62.65628,53.92791 -92.65558,68.70647 -16.46153,8.1094 -27.40562,11.4554 -37.64425,11.50989 -11.84393,0.0631 -17.78359,-3.36783 -22.20197,-12.82512 -6.38853,-13.67439 -5.93665,-34.80238 1.54205,-72.09677 3.8215,-19.05633 7.77731,-34.62986 18.76596,-73.87683 10.66733,-38.09983 14.93061,-55.4868 14.26025,-58.15789 -0.30658,-1.22143 -1.64626,-2.71689 -2.97706,-3.32323 -13.98379,-6.37147 -58.76101,20.63514 -75.21592,45.36524 -10.07796,15.14633 -14.26656,27.71261 -29.68956,89.07068 -14.60552,58.10642 -18.51525,75.13653 -25.83976,81.56754 -4.54081,3.98684 -6.51728,4.29371 -20.75102,4.27638 -12.66353,-0.0155 -14.42754,-0.53188 -16.91387,-4.27638 -2.48632,-3.74448 4.35028,-32.93036 15.35299,-79.23385 11.61686,-48.88806 13.71174,-58.03855 23.80893,-102.28546 10.09719,-44.24692 11.21919,-37.88582 -9.83207,-26.31421 -7.05634,3.58343 -15.61002,9.49864 -22.84254,9.02193 -7.23251,-0.4767 -16.86357,-5.90663 -16.06069,-12.08804 0.68257,-5.25447 7.42902,-11.1646 25.22165,-21.90669 17.79263,-10.74209 66.04659,-32.362506 74.43246,-27.825751 6.79599,3.676632 5.72328,12.283151 -2.32189,40.594721 -3.80553,13.39213 19.27837,-7.85825 37.5292,-17.73381 18.25084,-9.87556 37.05775,-20.727341 57.56182,-22.045627 8.98116,-0.577448 19.75052,0.962755 26.2424,6.348175 13.61076,11.290972 10.91427,31.842692 1.06037,69.960202 -3.83038,14.81691 -6.50734,29.44289 -20.05671,68.51253 -9.37432,27.03118 -16.95165,51.61411 -17.92468,58.15278 -0.91159,6.12669 1.4496,12.37237 5.46188,14.44724 15.00003,7.75677 56.39379,-21.50024 85.21136,-60.22711 23.75638,-31.92526 34.21094,-61.41209 34.19392,-96.44245 -0.0151,-21.40422 -3.92855,-39.6003 -12.32096,-57.218891 C 415.00841,81.797075 409.90054,74.386971 401.26118,65.747571 392.62273,57.10912 385.21314,52.001413 372.60834,45.995802 333.38018,27.305449 281.51032,24.857097 225.12918,39.034522 194.18139,46.816567 168.68208,60.224497 141.40912,83.056034 91.378723,124.9388 60.750763,178.54206 52.962913,237.84905 c -1.51781,11.55847 -1.24783,38.39067 0.51272,50.94873 5.27336,37.61693 18.27267,63.62436 44.09978,88.22951 24.168207,23.02503 46.986037,34.73826 83.395407,42.80979 20.58945,4.56459 50.55201,2.07028 82.04428,-6.82987 33.31892,-9.41648 71.23376,-26.18835 97.75849,-43.2439 13.78171,-8.86191 21.25018,-11.57516 32.10557,-11.664 9.52972,-0.0783 13.27126,1.74504 13.77102,6.70986 0.24122,2.39629 -0.53139,3.57184 -5.07956,7.72852 -14.76965,13.49862 -57.61738,37.55299 -90.2566,50.6693 -31.76933,12.76667 -58.79922,20.12924 -87.51714,23.28568 -22.85815,2.51238 -47.64,1.78027 -57.88376,0.79866 z"
     style="fill:#ffffff;stroke-width:1.50576985" />
</svg>
